# xmcd
#
# Track frame offsets:
#	150
#	24840
#	44956
#	69471
#	87621
#	101121
#	125318
#	140616
#	159609
#	174751
#	190684
#	207632
#	220080
#	235327
#
# Disc length: 3461
#
# Revision: 1
# Processed by: cddbd v1.5.1PL0 Copyright (c) Steve Scherf et al.
# Submitted via: CDex 1.50beta9
# Normalized: r0:TDELIM( - )
#
DISCID=cc0d830e
DTITLE=Various Artist - Hot Hits - Dancin' Country - Vol 10
DYEAR=1998
DGENRE=Country
TTITLE0=Tracy Byrd - I'm From The Country
TTITLE1=Clay Walker - Then What
TTITLE2=Kimber Clayton - Addicted To Love
TTITLE3=Toby Keith - Dream Walkin
TTITLE4=Trisha Yearwood - Perfect Love
TTITLE5=Big House - Walkin' On Me (He-Man Mix)
TTITLE6=Faith Hill - This Kiss
TTITLE7=Sherrie Austin - Put Your Heart Into It
TTITLE8=Brooks and Dunn - Honky Tonk Truth
TTITLE9=Pam Tillis - Land Of The Living
TTITLE10=Charles Alan Rowe - Big Enough
TTITLE11=Scooter Lee - Dizzy
TTITLE12=Michael Peterson - Too Good To Be True
TTITLE13=The Malones - Cripple Creek
EXTD=YEAR: 1998
EXTT0=
EXTT1=
EXTT2=
EXTT3=
EXTT4=
EXTT5=
EXTT6=
EXTT7=
EXTT8=
EXTT9=
EXTT10=
EXTT11=
EXTT12=
EXTT13=
PLAYORDER=
